<?xml version="1.0" standalone="no"?>
<!DOCTYPE svg PUBLIC "-//W3C//DTD SVG 20010904//EN"
 "http://www.w3.org/TR/2001/REC-SVG-20010904/DTD/svg10.dtd">
<svg version="1.0" xmlns="http://www.w3.org/2000/svg"
 width="582.000000pt" height="512.000000pt" viewBox="0 0 582.000000 512.000000"
 preserveAspectRatio="xMidYMid meet">

<g transform="translate(0.000000,512.000000) scale(0.100000,-0.100000)"
fill="#000000" stroke="none">
<path d="M2775 3924 c-120 -19 -214 -40 -302 -69 -349 -116 -652 -375 -808
-690 -61 -124 -78 -172 -131 -371 -35 -129 -37 -149 -38 -284 0 -111 4 -162
18 -215 24 -91 136 -345 196 -445 137 -228 359 -425 610 -544 219 -103 409
-141 655 -133 88 3 194 13 235 22 344 75 660 275 861 547 75 101 170 293 204
413 44 152 58 271 52 445 -10 277 -81 498 -230 720 -66 97 -210 246 -316 325
-156 118 -381 218 -586 260 -78 17 -355 29 -420 19z m460 -60 c100 -21 100
-21 130 -64 18 -27 40 -43 69 -53 29 -10 42 -20 44 -35 6 -37 -26 -38 -63 -2
-21 20 -40 30 -49 27 -31 -12 -16 -37 40 -65 42 -21 71 -48 61 -58 -2 -3 7
-17 21 -31 l26 -26 -28 -22 c-23 -18 -27 -28 -22 -49 8 -34 47 -58 88 -54 28
3 34 8 48 47 8 24 22 48 31 54 24 15 68 0 98 -34 30 -34 41 -37 34 -9 -3 11
-1 20 5 20 17 0 70 -49 77 -70 8 -26 25 -25 32 0 4 15 11 19 27 14 36 -10 70
-39 88 -74 21 -41 10 -60 -36 -60 -18 0 -37 -5 -42 -10 -7 -7 -23 -1 -49 20
-21 16 -46 30 -56 30 -10 0 -26 11 -35 25 -25 38 -82 34 -169 -13 -66 -35 -70
-39 -70 -71 0 -24 -7 -38 -22 -48 -13 -9 -23 -19 -23 -24 0 -5 27 -42 61 -81
80 -96 151 -239 179 -362 12 -53 27 -96 34 -96 6 0 34 12 63 26 l52 27 33 -21
c18 -11 42 -20 53 -19 22 2 23 -6 9 -95 -6 -42 -3 -53 26 -98 29 -46 31 -54
25 -102 -4 -29 -18 -88 -31 -130 -20 -64 -23 -84 -15 -120 13 -58 -2 -160 -34
-229 -13 -30 -25 -64 -25 -76 0 -30 20 -71 37 -78 26 -9 76 31 113 90 19 30
56 89 82 130 27 42 59 98 73 125 14 28 27 50 30 50 8 0 -47 -143 -82 -215 -61
-121 -140 -233 -235 -331 -190 -196 -394 -315 -650 -380 -139 -35 -395 -44
-538 -20 -284 49 -529 176 -729 377 -77 76 -161 179 -147 179 3 0 29 -14 58
-31 151 -90 326 -138 537 -148 l125 -6 21 -85 c25 -99 36 -121 71 -149 36 -29
58 -28 49 2 -4 12 -11 54 -16 92 -15 119 10 158 108 171 l51 6 6 -78 c9 -111
16 -146 26 -142 10 3 817 755 825 768 3 4 -91 6 -208 4 -116 -2 -368 -7 -559
-10 -249 -5 -348 -10 -348 -18 0 -6 30 -48 65 -94 36 -45 63 -86 61 -91 -11
-16 -172 -36 -296 -35 -142 0 -223 17 -336 69 -166 76 -278 181 -349 330 -58
121 -70 177 -69 320 1 133 21 228 74 344 16 37 36 108 45 159 18 110 26 127
103 224 71 87 122 137 122 118 0 -7 -20 -33 -44 -56 -55 -53 -81 -103 -91
-174 -4 -29 -16 -74 -26 -98 -23 -52 -23 -62 -6 -62 8 0 21 18 30 40 32 82 51
35 37 -91 -10 -82 -9 -85 18 -129 23 -37 37 -48 76 -60 27 -9 56 -26 66 -38
10 -12 20 -22 23 -22 2 0 9 26 16 58 7 31 18 76 26 99 19 59 3 63 -51 13 -25
-23 -50 -40 -57 -37 -48 16 -20 148 44 208 85 79 163 88 185 21 12 -37 24 -32
24 8 0 15 7 33 16 41 8 7 26 33 39 58 31 61 89 119 142 143 37 16 43 23 43 49
0 27 3 29 33 27 32 -2 97 18 97 30 0 3 -9 16 -21 28 -26 28 -20 40 28 47 30 5
42 2 60 -15 19 -17 26 -19 36 -9 9 9 8 20 -9 49 -12 20 -31 41 -43 47 -12 6
-21 19 -21 32 0 16 -6 23 -19 23 -10 0 -24 7 -31 15 -19 23 -49 18 -59 -9 -5
-12 -26 -33 -45 -44 -21 -12 -36 -29 -36 -40 0 -21 -18 -42 -37 -42 -8 0 -13
13 -13 34 0 26 -5 36 -20 41 -45 14 -9 56 59 69 19 3 50 18 68 32 26 20 41 24
61 19 69 -17 84 -17 93 -4 5 9 2 23 -7 37 -9 13 -14 25 -12 27 2 2 26 6 53 10
l50 6 28 -46 c15 -26 27 -53 27 -61 0 -26 21 -14 83 50 l62 64 75 -5 c41 -3
107 -11 145 -19z"/>
</g>
</svg>
